#!OML:ASF F:\VICON\USERDATA\INSTALL\rory3\rory3.ASF
:FULLY-SPECIFIED
:DEGREES
99
root 0.5414487103193719 17.69075292289421 50.862516568140556 -2.1429361986615936 -0.2988978713190215 2.8108341165034747
lfemur 7.090208274979322 -3.0048222226920043 -27.534828844861366
ltibia 14.873983273378567
lfoot -18.874805913469334 1.4576181530667558
ltoes -2.672817595110198
rfemur -30.665350907392938 2.8238173591006213 17.312795209947048
rtibia 26.228650172590196
rfoot -9.795728286080758 -17.141856960054856
rtoes -1.3186540666688122
lowerback 9.80110484747377 -0.9038165760700964 -4.15745633722692
upperback 0.6037895447622934 -1.611658832706031 0.9084288778518502
thorax -4.701790296881015 -0.691688462891917 3.6054937671060316
lowerneck -16.016578205198876 -2.7399235238682733 -3.670358542768209
upperneck 18.99457679760988 -3.3211181910276277 2.1644319191318884
head 8.656433158594002 -1.5928898780790712 0.9209622341089242
lclavicle -1.1468006882717764e-15 -9.5394161096788e-16
lhumerus -22.018890515438652 -3.351137842484725 79.14635471660188
lradius 25.70290986396681
lwrist 7.662578121083476
lhand -30.491774773088682 19.287216386714263
lfingers 7.125020000000056
lthumb -3.7920826534112893 49.25948431081737
rclavicle -1.1468006882717764e-15 -9.5394161096788e-16
rhumerus -32.417167276115144 -17.462634567519252 -80.55104740435675
rradius 27.393956056249962
rwrist 2.9017666448132537
rhand -17.010896154963916 30.66849363024515
rfingers 7.125020000000056
rthumb 9.225271736534157 -6.01015428943921
100
root 0.5182860653430654 17.626320797096795 51.444284682195324 -1.5568431165608558 0.2656777942687307 3.112621601061655
lfemur 10.618236798540735 -3.1769873735652707 -27.597068155689183
ltibia 12.064153248356668
lfoot -19.19553683426316 0.7699917297679377
ltoes -6.241129132824239
rfemur -30.16419253867474 4.859556794564295 16.285792388172077
rtibia 17.333518037759738
rfoot -9.72388697458629 -17.92060816506715
rtoes -3.0501483431674314
lowerback 9.582947500880444 -1.1268828651726945 -4.6041975015349275
upperback 0.5208790814731312 -1.9510907086689464 0.9875961227630787
thorax -4.629408952660715 -0.8490879081350805 3.996915475374246
lowerneck -16.192710757428184 -2.7542131681249766 -3.669474431227486
upperneck 19.038013613612673 -3.346188328147222 2.215315783034655
head 8.709569838267479 -1.5979569654311936 0.9329350467186263
lclavicle -1.0910890811938476e-15 -9.108039510039961e-16
lhumerus -20.4209837670538 -4.260359315053879 78.99912882307703
lradius 27.04280239786977
lwrist 8.262199673432002
lhand -30.741211480866355 19.18914574159696
lfingers 7.125020000000056
lthumb -4.032981192346792 49.15492932612629
rclavicle -1.0910890811938476e-15 -9.108039510039961e-16
rhumerus -33.2734706375495 -18.63950953881319 -79.69150329759903
rradius 26.09308444425575
rwrist 4.118457430702372
rhand -17.074608737841753 30.827486012069535
rfingers 7.125020000000056
rthumb 9.163839029155845 -5.751547368282309
101
root 0.4839394688083082 17.559003412125723 51.88254923755318 -1.2658630378199693 0.622213181639965 3.073556800080913
lfemur 13.320893880897032 -3.850342312805906 -27.474527884918537
ltibia 11.25151692629878
lfoot -19.007125995216462 -0.20914765040605676
ltoes -10.94415367040507
rfemur -30.073475112156224 5.579406659086947 16.20345379965803
rtibia 14.43174192110974
rfoot -9.148326823939174 -16.660086273356562
rtoes -4.087310006148559
lowerback 9.50634281957321 -1.30520996043328 -4.755952174407634
upperback 0.4552117382935242 -2.19770941885442 1.1453219862090989
thorax -4.64290331466867 -0.965166621865628 4.258731318374815
lowerneck -16.370166738945237 -2.7406372017591663 -3.642798723299398
upperneck 19.172101578348027 -3.3179223714277506 2.14515538429655
head 8.790070412297677 -1.5878425727693242 0.9056556335885937
lclavicle -1.1810551768639606e-15 -9.804649579955013e-16
lhumerus -19.484992494868113 -4.525164378024167 78.91633722637289
lradius 27.883972797699094
lwrist 8.561080646681413
lhand -31.25950258103918 18.460922166792788
lfingers 7.125020000000056
lthumb -4.533491123976722 48.41945649915086
rclavicle -1.1810551768639606e-15 -9.804649579955013e-16
rhumerus -34.388287906003754 -20.4574069073639 -78.45395488117356
rradius 24.31865573284069
rwrist 5.782612812745529
rhand -17.18705177712271 30.816324741048092
rfingers 7.125020000000056
rthumb 9.055382209551704 -5.696122143728993
102
root 0.4521163754456139 17.512431762211122 52.652760144027816 -1.2280027834186966 0.7840132590936038 2.7049845949038542
lfemur 15.333612689134238 -4.761909783432208 -27.01284505259622
ltibia 13.174982556495262
lfoot -17.307277452602975 -1.6190086201690699
ltoes -15.933303701350201
rfemur -30.160380373422797 5.251196786675957 17.15924959687741
rtibia 16.894263804205803
rfoot -7.580988225328872 -13.868916828477172
rtoes -3.566810394556323
lowerback 9.540676104131913 -1.4359363114658343 -4.513459856042576
upperback 0.4143419183645108 -2.335484030981375 1.416562910552825
thorax -4.680764137178686 -1.0344422652147847 4.430589994665937
lowerneck -16.446082094860948 -2.660894429879189 -3.5984470948802145
upperneck 19.451710214082937 -3.171480867960163 1.9553030900756336
head 8.895834780595058 -1.5388166701312578 0.8467499981558525
lclavicle -1.0654765986547416e-15 -8.90972130462034e-16
lhumerus -19.06948093449845 -4.046033172620644 79.0103440144576
lradius 28.825294047068056
lwrist 8.788828682981961
lhand -31.899047445842147 17.698646870155258
lfingers 7.125020000000057
lthumb -5.151092651556851 47.649533260620196
rclavicle -1.0654765986547416e-15 -8.90972130462034e-16
rhumerus -35.598310945655754 -22.586731667100985 -76.60025637724809
rradius 22.75469818799698
rwrist 8.064705049904582
rhand -17.27168699680288 30.78194479518519
rfingers 7.125020000000057
rthumb 8.973725673826188 -5.682215633770486
103
root 0.4184874573247694 17.497555223441754 53.45488678954458 -1.398240365457374 0.728240924125584 1.950298191302704
lfemur 16.058987879167745 -5.544556128299681 -26.08700941355487
ltibia 17.757365841985454
lfoot -13.42267926586888 -3.9066632013805496
ltoes -19.93022774503846
rfemur -30.172513679930475 4.617488958336966 18.814787227846754
rtibia 22.164099208586627
rfoot -5.55765492998459 -10.644970491715306
rtoes -1.1931077420472365
lowerback 9.605398916065623 -1.5422562184608641 -3.902657075931943
upperback 0.36915298063295215 -2.3952870991190434 1.780751326355404
thorax -4.7596071975684655 -1.0715257805922325 4.472292712485036
lowerneck -16.381094080202907 -2.517660218201805 -3.5463167310293815
upperneck 19.838958298083547 -2.9174351604928503 1.6448826273493287
head 9.005253251064671 -1.4536100588914 0.7581727107353653
lclavicle -9.417422024685278e-16 -7.951642294201264e-16
lhumerus -19.31992194290009 -3.109790642482255 79.26355503399532
lradius 29.65952786604795
lwrist 8.867535742292393
lhand -32.38118985905218 17.309661906601985
lfingers 7.125020000000057
lthumb -5.61670079339256 47.25327469382374
rclavicle -9.417422024685278e-16 -7.951642294201264e-16
rhumerus -36.99697657535813 -24.971256807095237 -74.3830293072048
rradius 21.265374461838114
rwrist 10.606279105483704
rhand -17.32702440404858 30.75927544728318
rfingers 7.125020000000057
rthumb 8.920308157487357 -5.723732387351406
104
root 0.38153502109231185 17.522777892818453 54.32010051514052 -1.6732050413895045 0.5787444140726092 0.8831133718677342
lfemur 15.333918046963152 -5.878152534014321 -24.527997666719266
ltibia 24.994982526302046
lfoot -6.908739828011315 -7.235007647086615
ltoes -21.094452076636575
rfemur -29.481690648365422 4.260779784657335 20.90340642592608
rtibia 27.953221688871057
rfoot -3.942227086665662 -7.865572529411374
rtoes 2.7405619539060306
lowerback 9.712558565686782 -1.609694727834254 -2.9491364320598175
upperback 0.3146544680648921 -2.3608967045483102 2.2078395702233182
thorax -4.871010077289942 -1.0690390068158866 4.394737094673677
lowerneck -16.15145568249743 -2.342039576796073 -3.4894370475491456
upperneck 20.283410793672623 -2.6128781243031938 1.3011712975596952
head 9.099522088936919 -1.3515829162903055 0.6633930850453467
lclavicle -6.600320100404836e-16 -5.770352136277763e-16
lhumerus -20.067578363748723 -1.985490015559628 79.74834005189317
lradius 30.678344343100072
lwrist 8.895230952664685
lhand -32.43094828311379 17.609849664695098
lfingers 7.125020000000058
lthumb -5.664759552836014 47.548911595567134
rclavicle -6.600320100404836e-16 -5.770352136277763e-16
rhumerus -38.3280044023535 -27.013046768207612 -72.14943067054472
rradius 20.39826060073922
rwrist 12.885785703035864
rhand -17.324833521523978 30.78939938535964
rfingers 7.125020000000058
rthumb 8.922374787120974 -5.665770075672294
